<svg xmlns="http://www.w3.org/2000/svg" width="64" height="64" viewBox="0 0 64 64">
  <g id="fav-icon" transform="translate(-1030 -350.001)">
    <path id="Intersection_1" data-name="Intersection 1" d="M27.428,64C12.28,64,0,49.673,0,32A36.965,36.965,0,0,1,2.432,18.808C6.527,7.888,16.188,0,27.428,0Z" transform="translate(1094 414.001) rotate(180)" fill="#f0c907"/>
    <path id="Subtraction_1" data-name="Subtraction 1" d="M36.211,64H0V0H36.553A24.746,24.746,0,0,0,21.394,5.309a30.426,30.426,0,0,0-9.819,13.5A36.866,36.866,0,0,0,9.143,32,36.429,36.429,0,0,0,11.3,44.456a32.637,32.637,0,0,0,5.878,10.172A27.527,27.527,0,0,0,25.9,61.485,23.953,23.953,0,0,0,36.211,64Z" transform="translate(1030 350.001)" fill="#f0c907"/>
  </g>
</svg>
