<svg xmlns="http://www.w3.org/2000/svg" viewBox="0 0 500 372.61"><defs><style>.cls-1{isolation:isolate;}.cls-2{fill:#ebebeb;}.cls-3{fill:#f0f0f0;}.cls-4{fill:#fafafa;}.cls-5{fill:#e0e0e0;}.cls-6{fill:#e6e6e6;}.cls-12,.cls-7{fill:#fff;}.cls-8{fill:#f5f5f5;}.cls-11,.cls-9{fill:#263238;}.cls-10,.cls-18{fill:#d9cb04;}.cls-11,.cls-21{opacity:0.4;}.cls-12{opacity:0.1;}.cls-13{fill:#407bff;}.cls-14,.cls-20{opacity:0.3;}.cls-14{mix-blend-mode:multiply;}.cls-15{opacity:0.8;}.cls-16{fill:#ffc3bd;}.cls-17{fill:#ed847e;}.cls-18,.cls-19{opacity:0.2;}</style></defs><g class="cls-1"><g id="Layer_2" data-name="Layer 2"><g id="Background_Complete" data-name="Background Complete"><rect class="cls-2" y="327.45" width="500" height="0.25"/><rect class="cls-2" x="52.46" y="336.97" width="77.91" height="0.25"/><rect class="cls-2" x="412" y="344.58" width="37.9" height="0.25"/><rect class="cls-2" x="131.37" y="346.26" width="19.19" height="0.25"/><rect class="cls-2" x="202.17" y="334.26" width="43.19" height="0.25"/><rect class="cls-2" x="254.26" y="334.26" width="6.33" height="0.25"/><rect class="cls-2" x="327.67" y="340.35" width="43.22" height="0.25"/><path class="cls-2" d="M237,282.85H43.91a5.71,5.71,0,0,1-5.7-5.71V5.71A5.71,5.71,0,0,1,43.91,0H237a5.71,5.71,0,0,1,5.71,5.71V277.14A5.71,5.71,0,0,1,237,282.85ZM43.91.25a5.46,5.46,0,0,0-5.45,5.46V277.14a5.46,5.46,0,0,0,5.45,5.46H237a5.47,5.47,0,0,0,5.46-5.46V5.71A5.47,5.47,0,0,0,237,.25Z"/><path class="cls-2" d="M453.31,282.85H260.21a5.72,5.72,0,0,1-5.71-5.71V5.71A5.72,5.72,0,0,1,260.21,0h193.1A5.71,5.71,0,0,1,459,5.71V277.14A5.71,5.71,0,0,1,453.31,282.85ZM260.21.25a5.47,5.47,0,0,0-5.46,5.46V277.14a5.47,5.47,0,0,0,5.46,5.46h193.1a5.47,5.47,0,0,0,5.46-5.46V5.71A5.47,5.47,0,0,0,453.31.25Z"/><path class="cls-3" d="M132.87,304.59H83.73a4.41,4.41,0,0,1-4.36-3.78l-12.3-84.07a4.41,4.41,0,0,1,4.37-5.05h49.13a4.4,4.4,0,0,1,4.36,3.77l12.3,84.07A4.41,4.41,0,0,1,132.87,304.59Z"/><path class="cls-4" d="M89.58,304.59H66.41a4.4,4.4,0,0,1-4.36-3.78l-12.3-84.07a4.41,4.41,0,0,1,4.36-5.05H77.28a4.41,4.41,0,0,1,4.37,3.77l12.29,84.07A4.41,4.41,0,0,1,89.58,304.59Z"/><path class="cls-5" d="M382.82,190.38H144c-6.07,0-11.4,4.55-11.92,10.16l-6,64.91c-.52,5.61,4,10.16,10,10.16h238.8c6.07,0,11.4-4.55,11.92-10.16l6-64.91C393.38,194.93,388.89,190.38,382.82,190.38Z"/><path class="cls-6" d="M366.61,190.38H127.81c-6.07,0-11.4,4.55-11.92,10.16l-6,64.91c-.52,5.61,4,10.16,10,10.16h238.8c6.07,0,11.41-4.55,11.92-10.16l6-64.91C377.17,194.93,372.68,190.38,366.61,190.38Z"/><rect class="cls-2" x="131.08" y="233.67" width="37.5" height="104.33" rx="7.19" transform="translate(435.66 136.01) rotate(90)"/><rect class="cls-5" x="268.04" y="226.76" width="37.5" height="118.14" rx="6.58" transform="translate(572.62 -0.95) rotate(90)"/><rect class="cls-2" x="242.31" y="226.76" width="37.5" height="118.14" rx="6.58" transform="translate(546.9 24.77) rotate(90)"/><path class="cls-3" d="M382.17,304.59H345.62a3.85,3.85,0,0,1-3.73-5.06l23-84.07a5.18,5.18,0,0,1,4.85-3.77h36.55a3.84,3.84,0,0,1,3.72,5.05l-23,84.07A5.17,5.17,0,0,1,382.17,304.59Z"/><path class="cls-4" d="M351.46,304.59H328.29a3.84,3.84,0,0,1-3.72-5.06l23-84.07a5.17,5.17,0,0,1,4.85-3.77H375.6a3.84,3.84,0,0,1,3.73,5.05l-23,84.07A5.19,5.19,0,0,1,351.46,304.59Z"/><polygon class="cls-5" points="332.08 327.45 328.56 327.45 320.13 304.58 328.85 304.58 332.08 327.45"/><polygon class="cls-5" points="376.7 327.45 373.18 327.45 364.75 304.58 373.46 304.58 376.7 327.45"/><polygon class="cls-5" points="123.07 327.45 126.59 327.45 135.01 304.58 126.3 304.58 123.07 327.45"/><polygon class="cls-5" points="78.45 327.45 81.97 327.45 90.39 304.58 81.69 304.58 78.45 327.45"/><rect class="cls-5" x="116.67" y="42.71" width="266.66" height="95.11"/><rect class="cls-3" x="114.22" y="42.71" width="266.66" height="95.11"/><rect class="cls-4" x="208" y="-35.06" width="79.11" height="250.66" transform="translate(337.83 -157.29) rotate(90)"/><circle class="cls-3" cx="247.56" cy="90.27" r="23.72"/><polygon class="cls-7" points="162.91 129.82 179.53 50.71 216.19 50.71 199.58 129.82 162.91 129.82"/><polygon class="cls-7" points="215.05 129.82 231.67 50.71 250 50.71 233.39 129.82 215.05 129.82"/><polygon class="cls-7" points="326.99 129.82 343.61 50.71 361.94 50.71 345.33 129.82 326.99 129.82"/><path class="cls-3" d="M442.28,196.81c-6.22,27,9,54.81,2.77,81.78l-6.16-.26-6.16-.26C443.06,251.28,432,223.6,442.28,196.81Z"/><path class="cls-3" d="M426.33,208.5c5.1,25.78-11.26,51.56-6.16,77.34H432.5C423.29,260.06,435.54,234.28,426.33,208.5Z"/><path class="cls-6" d="M437.72,187.07c-8.16,27.49,7,57.16-1.16,84.65l-6.7-.63-6.7-.62C435.79,243.39,425.09,214.14,437.72,187.07Z"/><path class="cls-6" d="M449.73,226.65c2.63,14.87-12,26.56-9.41,41.42l5,.92,5,.91C444.32,254.43,455.67,242.13,449.73,226.65Z"/><ellipse class="cls-5" cx="435.02" cy="297.27" rx="33.65" ry="37.68"/></g><g id="Shadow"><ellipse id="_Path_" data-name="&lt;Path&gt;" class="cls-8" cx="250" cy="361.29" rx="193.89" ry="11.32"/></g><g id="Board"><path class="cls-9" d="M383.8,219.64H167.7a4,4,0,0,1-4-4.23L171,82.92a4.54,4.54,0,0,1,4.47-4.23h216.1a4,4,0,0,1,4,4.23l-7.28,132.49A4.52,4.52,0,0,1,383.8,219.64Z"/><path class="cls-9" d="M292.89,101.22H272a11.88,11.88,0,0,1-12-12.65l.21-3.86a13.15,13.15,0,0,1,12.94-12.26h20.88a11.9,11.9,0,0,1,12,12.66L305.84,89A13.16,13.16,0,0,1,292.89,101.22Z"/><polygon class="cls-9" points="311.91 357.11 305.22 357.11 286.79 75.41 293.49 75.41 311.91 357.11"/><polygon class="cls-9" points="261.67 357.11 268.37 357.11 286.79 75.41 280.1 75.41 261.67 357.11"/><path class="cls-10" d="M382.65,219.64H166.55a4,4,0,0,1-4-4.23l7.27-132.49a4.54,4.54,0,0,1,4.47-4.23h216.1a4,4,0,0,1,4,4.23l-7.28,132.49A4.52,4.52,0,0,1,382.65,219.64Z"/><path class="cls-11" d="M170,215.58a3.17,3.17,0,0,1-3.2-3.38l6.93-126.07a3.62,3.62,0,0,1,3.56-3.39H387a3.18,3.18,0,0,1,3.2,3.39L383.23,212.2a3.62,3.62,0,0,1-3.57,3.38Z"/><path class="cls-12" d="M381,148.76H317.85a2.7,2.7,0,0,1-2.72-2.88l3.15-57.38a.38.38,0,0,0-.38-.41.43.43,0,0,0-.43.41l-3.15,57.38a3.08,3.08,0,0,1-3,2.88H245.7a2.7,2.7,0,0,1-2.72-2.88l3.15-57.38a.38.38,0,0,0-.38-.41.43.43,0,0,0-.43.41l-3.15,57.38a3.08,3.08,0,0,1-3,2.88H176a.43.43,0,0,0-.43.4.38.38,0,0,0,.38.41h63.12a2.7,2.7,0,0,1,2.72,2.87l-3.15,57.39a.37.37,0,0,0,.38.4.44.44,0,0,0,.43-.4l3.15-57.39a3.07,3.07,0,0,1,3-2.87h65.59a2.69,2.69,0,0,1,2.72,2.87l-3.15,57.39a.37.37,0,0,0,.38.4.44.44,0,0,0,.43-.4l3.15-57.39a3.07,3.07,0,0,1,3-2.87h63.12a.44.44,0,0,0,.43-.41A.38.38,0,0,0,381,148.76Z"/><polygon class="cls-11" points="278.05 98.49 252.7 98.49 251.28 124.28 276.6 124.95 278.05 98.49"/><path class="cls-7" d="M275.31,123.85l-25.45-1.25a223.08,223.08,0,0,0,2.65-26.31l25.59,1.24A223.83,223.83,0,0,1,275.31,123.85Z"/><polygon class="cls-11" points="308.62 115.72 283.23 117.65 283.79 143.36 309.19 142.1 308.62 115.72"/><path class="cls-13" d="M307.81,141.1l-25.58.71a220.77,220.77,0,0,0,.64-26.32l25.72-.73A221.24,221.24,0,0,1,307.81,141.1Z"/><polygon class="cls-11" points="234.48 162.61 187.68 160.82 183.47 202.46 230.17 205.34 234.48 162.61"/><path class="cls-7" d="M227.84,203.45,181,199.65a320.08,320.08,0,0,0,6.5-42.4l47.17,3.81A317.3,317.3,0,0,1,227.84,203.45Z"/><g class="cls-14"><path d="M186.31,104.32h0a2.49,2.49,0,0,1-2.5-2.64h0A2.84,2.84,0,0,1,186.6,99h0a2.48,2.48,0,0,1,2.49,2.64h0A2.83,2.83,0,0,1,186.31,104.32Z"/><path class="cls-15" d="M227.66,104.32H195.19a2.48,2.48,0,0,1-2.49-2.64h0A2.82,2.82,0,0,1,195.48,99H228a2.49,2.49,0,0,1,2.5,2.64h0A2.84,2.84,0,0,1,227.66,104.32Z"/><path d="M185.68,115.82h0a2.47,2.47,0,0,1-2.5-2.63h0a2.83,2.83,0,0,1,2.79-2.64h0a2.48,2.48,0,0,1,2.49,2.64h0A2.82,2.82,0,0,1,185.68,115.82Z"/><path class="cls-15" d="M232.78,115.82H194.56a2.48,2.48,0,0,1-2.5-2.63h0a2.84,2.84,0,0,1,2.79-2.64h38.22a2.49,2.49,0,0,1,2.5,2.64h0A2.83,2.83,0,0,1,232.78,115.82Z"/><path d="M185,127.33h0a2.48,2.48,0,0,1-2.49-2.64h0a2.83,2.83,0,0,1,2.78-2.64h0a2.49,2.49,0,0,1,2.5,2.64h0A2.84,2.84,0,0,1,185,127.33Z"/><path class="cls-15" d="M212.53,127.33H193.92a2.48,2.48,0,0,1-2.49-2.64h0a2.83,2.83,0,0,1,2.78-2.64h18.61a2.48,2.48,0,0,1,2.49,2.64h0A2.83,2.83,0,0,1,212.53,127.33Z"/><path class="cls-15" d="M229.76,138.84H211.15a2.48,2.48,0,0,1-2.49-2.64h0a2.83,2.83,0,0,1,2.78-2.64h18.61a2.48,2.48,0,0,1,2.49,2.64h0A2.83,2.83,0,0,1,229.76,138.84Z"/><path d="M184.41,138.84h0a2.48,2.48,0,0,1-2.49-2.64h0a2.83,2.83,0,0,1,2.78-2.64h0a2.48,2.48,0,0,1,2.49,2.64h0A2.83,2.83,0,0,1,184.41,138.84Z"/><path class="cls-15" d="M201.88,138.84h-8.59a2.48,2.48,0,0,1-2.49-2.64h0a2.83,2.83,0,0,1,2.78-2.64h8.59a2.48,2.48,0,0,1,2.5,2.64h0A2.83,2.83,0,0,1,201.88,138.84Z"/></g><polygon points="265.14 173.08 252.55 173.08 250.82 204.59 263.41 204.59 265.14 173.08"/><polygon points="284.25 179.57 271.65 179.57 270.28 204.59 282.87 204.59 284.25 179.57"/><polygon points="304.62 162.79 292.03 162.79 289.74 204.59 302.33 204.59 304.62 162.79"/><path class="cls-7" d="M255.36,190.86c-1.25,0-2.51,0-3.78-.1a21.22,21.22,0,0,1-7.62-1.55.81.81,0,0,1-.41-1.07.82.82,0,0,1,1.08-.41,19.85,19.85,0,0,0,7,1.41c15.11.77,28.34-3.16,41.66-12.39a46.36,46.36,0,0,0,10.83-10.49.81.81,0,1,1,1.33.92,47.34,47.34,0,0,1-11.24,10.91C281.74,186.75,269.29,190.86,255.36,190.86Z"/><path class="cls-7" d="M307.36,172.48a.81.81,0,0,1-.75-1.12,14.32,14.32,0,0,0,.7-8.75A55.12,55.12,0,0,1,297.25,168a.81.81,0,0,1-1.06-.45.8.8,0,0,1,.45-1.05,53.59,53.59,0,0,0,10.67-5.81.78.78,0,0,1,.71-.11.79.79,0,0,1,.52.52,15.79,15.79,0,0,1-.43,10.93A.81.81,0,0,1,307.36,172.48Z"/><path d="M373.67,141.42H326.83a2.81,2.81,0,0,1-2.83-3l2.18-39.6a3.15,3.15,0,0,1,3.1-2.94h46.85a2.79,2.79,0,0,1,2.82,3l-2.18,39.6A3.15,3.15,0,0,1,373.67,141.42ZM329.28,96.7A2.32,2.32,0,0,0,327,98.87l-2.18,39.6a2,2,0,0,0,.54,1.51,2,2,0,0,0,1.48.62h46.84a2.31,2.31,0,0,0,2.29-2.17l2.18-39.6a2,2,0,0,0-2-2.13Z"/><path d="M378.1,107.25h-52a.41.41,0,0,1,0-.81h52a.41.41,0,1,1,0,.81Z"/><path d="M336.54,141.42h0a.42.42,0,0,1-.38-.43L338,106.82a.4.4,0,0,1,.43-.38.4.4,0,0,1,.38.43L336.94,141A.41.41,0,0,1,336.54,141.42Z"/><path d="M372.15,111.31H343.94a.41.41,0,0,1,0-.81h28.21a.41.41,0,1,1,0,.81Z"/><path d="M367.9,116.29H343.67a.41.41,0,1,1,0-.81H367.9a.41.41,0,1,1,0,.81Z"/><path d="M357.49,121.43h-14.1a.41.41,0,1,1,0-.81h14.1a.41.41,0,1,1,0,.81Z"/><path d="M360.05,131.46H342.84a.41.41,0,1,1,0-.81h17.21a.41.41,0,1,1,0,.81Z"/><path d="M356.66,136.61H342.55a.41.41,0,0,1,0-.82h14.11a.41.41,0,0,1,0,.82Z"/><path d="M364.91,136.61H360.4a.41.41,0,1,1,0-.82h4.51a.41.41,0,0,1,0,.82Z"/><path d="M369.53,126.41H343.11a.41.41,0,0,1,0-.81h26.42a.41.41,0,0,1,0,.81Z"/><path class="cls-7" d="M344.9,199c-6.12,0-11.13-1.81-14.24-5.17-3.33-3.6-4.71-9.24-3.79-15.5a20.57,20.57,0,0,1,3.72-9.56,20.82,20.82,0,0,1,8.23-6.17,28.62,28.62,0,0,1,24.23.33c3.29,1.65,5.35,3.74,6.13,6.21a.81.81,0,1,1-1.55.48c-.64-2-2.43-3.79-5.31-5.24a27,27,0,0,0-22.84-.29,17.12,17.12,0,0,0-11,14.48c-.85,5.76.38,10.92,3.37,14.15,4.15,4.49,11,4.81,14.76,4.61,6.94-.39,12.9-2.81,16.8-6.83,4.56-4.69,5.84-11.71,3-16.33a5.1,5.1,0,0,0-3.51-2.6.8.8,0,0,1-.72-.89A.81.81,0,0,1,363,170a6.54,6.54,0,0,1,4.73,3.36c3.24,5.23,1.87,13.11-3.19,18.33-4.19,4.3-10.53,6.9-17.88,7.31C346.09,199,345.49,199,344.9,199Z"/></g><g id="Character"><path class="cls-16" d="M137.32,114.38l-2.89,5-2.82,5.13c-1.86,3.43-3.64,6.89-5.26,10.36-.81,1.74-1.58,3.48-2.28,5.22l-.13.32,0,.07a.8.8,0,0,0-.09.14,2.64,2.64,0,0,0-.14.29,2.09,2.09,0,0,0,.12,1.12,11.24,11.24,0,0,0,2.41,3.65,44.4,44.4,0,0,0,3.91,3.7l-2.35,5a24.5,24.5,0,0,1-3.23-1.14,25.17,25.17,0,0,1-3-1.57,17.29,17.29,0,0,1-5.64-5.22,11.71,11.71,0,0,1-1.76-4.57,10.23,10.23,0,0,1,0-2.71,8.33,8.33,0,0,1,.23-1.34l.16-.65.12-.39c.65-2.05,1.31-4.07,2.09-6,1.52-3.93,3.24-7.72,5.1-11.41.94-1.85,1.9-3.67,2.92-5.47s2-3.56,3.2-5.39Z"/><path class="cls-16" d="M127.6,148.84l5.25-1.36.3,8.48s-4.11.61-6.62-1.9Z"/><polygon class="cls-16" points="140.3 146.05 139.11 153.5 133.15 155.96 132.85 147.48 140.3 146.05"/><path class="cls-9" d="M162,74.4c.12.59.52,1,.9.92s.6-.61.48-1.19-.52-1-.9-.92S161.92,73.82,162,74.4Z"/><path class="cls-17" d="M162.5,75.4a21.17,21.17,0,0,0,3.78,4.41,3.42,3.42,0,0,1-2.66,1.08Z"/><path class="cls-9" d="M159.25,71.61a.33.33,0,0,1-.23-.09.34.34,0,0,1,0-.49,3.43,3.43,0,0,1,3-1.15.35.35,0,1,1-.12.68h0a2.78,2.78,0,0,0-2.33.94A.36.36,0,0,1,159.25,71.61Z"/><path class="cls-16" d="M145.49,82.57c1.06,5.38,2.11,15.22-1.65,18.81,0,0,1.47,5.45,11.45,5.45,11,0,5.25-5.45,5.25-5.45-6-1.43-5.84-5.88-4.79-10Z"/><path class="cls-9" d="M141.67,102.38c-.8-1.5-1.69-3.21.14-3.74,2-.59,14.94-1.68,18.74-.58-1.17,2.08.8,4.63.8,4.63Z"/><path class="cls-13" d="M109.14,352.93a2.38,2.38,0,0,0,1.83-.1.71.71,0,0,0,.17-.81.81.81,0,0,0-.45-.51c-1-.48-3.27.45-3.37.49a.19.19,0,0,0-.11.16.18.18,0,0,0,.1.16A9.17,9.17,0,0,0,109.14,352.93Zm1.19-1.18.21.07a.48.48,0,0,1,.26.3c.1.31,0,.41-.06.44-.39.34-1.86,0-2.89-.38A5.68,5.68,0,0,1,110.33,351.75Z"/><path class="cls-13" d="M107.35,352.33h.08c.83-.24,2.61-1.5,2.63-2.34a.56.56,0,0,0-.44-.56.94.94,0,0,0-.77.06c-1,.5-1.61,2.54-1.63,2.62a.19.19,0,0,0,0,.18A.18.18,0,0,0,107.35,352.33Zm2.08-2.59.07,0c.22.07.22.18.22.22,0,.5-1.19,1.49-2,1.89A4.22,4.22,0,0,1,109,349.8.62.62,0,0,1,109.43,349.74Z"/><path class="cls-13" d="M163.38,354.16c.94,0,1.85-.13,2.16-.55a.67.67,0,0,0,0-.76.87.87,0,0,0-.55-.41c-1.22-.33-3.79,1.13-3.9,1.19a.17.17,0,0,0-.08.18.18.18,0,0,0,.13.15A13.43,13.43,0,0,0,163.38,354.16Zm1.16-1.42a1.22,1.22,0,0,1,.34,0,.51.51,0,0,1,.34.24c.12.22.08.32,0,.38-.34.48-2.2.49-3.56.3A7.82,7.82,0,0,1,164.54,352.74Z"/><path class="cls-13" d="M161.16,354l.07,0c.89-.39,2.64-2,2.51-2.81,0-.2-.17-.44-.65-.49a1.25,1.25,0,0,0-1,.3c-.93.77-1.13,2.74-1.14,2.83a.21.21,0,0,0,.08.16A.17.17,0,0,0,161.16,354Zm1.79-3h.1c.32,0,.34.15.34.19.08.5-1.11,1.75-2,2.29a4,4,0,0,1,1-2.26A.87.87,0,0,1,163,351Z"/><polygon class="cls-16" points="153.08 353.78 160.43 353.78 161.16 336.77 153.81 336.77 153.08 353.78"/><polygon class="cls-16" points="99.16 350.38 106.34 351.94 113.55 336.09 106.37 334.54 99.16 350.38"/><path class="cls-9" d="M107,351.22,99,349.47a.64.64,0,0,0-.71.36l-2.8,6.07a1.08,1.08,0,0,0,.77,1.51c2.83.56,4.23.69,7.78,1.46,2.18.47,7.11,1.67,10.12,2.32s4-2.24,2.88-2.78c-5.27-2.4-7.47-4.52-8.9-6.5A1.75,1.75,0,0,0,107,351.22Z"/><path class="cls-9" d="M160.38,352.93h-8a.63.63,0,0,0-.62.51L150.28,360a1.06,1.06,0,0,0,1.05,1.3c2.9,0,7.08-.22,10.72-.22,4.25,0,7.92.24,12.91.24,3,0,3.86-3.05,2.59-3.33-5.74-1.26-10.44-1.39-15.4-4.45A3.36,3.36,0,0,0,160.38,352.93Z"/><path class="cls-10" d="M130.68,103c-6.88,1.58-12.56,19.16-12.56,19.16L132,132.74a30.24,30.24,0,0,0,7.33-13.58C141.65,110,137.72,101.43,130.68,103Z"/><path class="cls-18" d="M130.68,103c-6.88,1.58-12.56,19.16-12.56,19.16L132,132.74a30.24,30.24,0,0,0,7.33-13.58C141.65,110,137.72,101.43,130.68,103Z"/><path class="cls-19" d="M136.58,116c-3.74,3.7-5,10.44-5.25,16.3l.61.47a30.2,30.2,0,0,0,7.34-13.58c.14-.55.26-1.1.36-1.64Z"/><path class="cls-10" d="M171.84,103.42s7.82,8.83.43,63.5H133c-.27-6,3.52-35.46-2.3-63.88a102.86,102.86,0,0,1,13.16-1.66,145.27,145.27,0,0,1,16.7,0A73.5,73.5,0,0,1,171.84,103.42Z"/><path class="cls-18" d="M171.84,103.42s7.82,8.83.43,63.5H133c-.27-6,3.52-35.46-2.3-63.88a102.86,102.86,0,0,1,13.16-1.66,145.27,145.27,0,0,1,16.7,0A73.5,73.5,0,0,1,171.84,103.42Z"/><path class="cls-19" d="M175.27,120.13l-.15-.13-8.93,2.14c-.51,6,5.7,13.26,8.9,16.56A171.45,171.45,0,0,0,175.27,120.13Z"/><polygon class="cls-19" points="161.16 336.78 160.78 345.55 153.43 345.55 153.81 336.78 161.16 336.78"/><polygon class="cls-19" points="106.36 334.54 113.55 336.1 109.83 344.26 102.64 342.71 106.36 334.54"/><path class="cls-16" d="M142.42,77.11c1.88,7,2.63,11.26,7,14.19,6.53,4.4,14.67-.65,14.93-8.12.23-6.71-2.9-17.1-10.46-18.52A9.94,9.94,0,0,0,142.42,77.11Z"/><path class="cls-9" d="M145.65,88.59c3,1.72,13.91-4,11.67-12.69,0,0,4.16-5,3.69-10.52s-4.26-7.62-8.29-6.44c-3.55,1.05-3.45,3-3.45,3s-16.79,2-13.2,8.8C129.23,78.18,141.91,86.46,145.65,88.59Z"/><path class="cls-9" d="M136.54,71.3s-2-3.46-4.92-1.52C133,69.8,135.24,70,136.54,71.3Z"/><path class="cls-9" d="M160.47,69s3.66-8.26-2-10.92A14.12,14.12,0,0,1,160.47,69Z"/><path class="cls-16" d="M154.4,77.41a8.28,8.28,0,0,0,3,4.38c1.91,1.42,3.34,0,3.21-2.14-.13-2-1.27-5-3.38-5.61S153.85,75.29,154.4,77.41Z"/><path class="cls-9" d="M158.34,166.92s-8.34,56.14-12.92,77.17c-5,23-31.89,99.24-31.89,99.24l-13.15-2.85s18.8-62.1,23-94.3c3.23-24.73,9.6-79.26,9.6-79.26Z"/><path class="cls-13" d="M116.68,338.94c.06,0-2.45,4.75-2.45,4.75l-14.79-3.2,1.24-4.45Z"/><path class="cls-20" d="M153.07,186.92c-9.64,1.89-8.62,37.84-7.46,56.33,2.78-13.07,6.85-38.22,9.63-56.07A3.29,3.29,0,0,0,153.07,186.92Z"/><path class="cls-9" d="M172.27,166.92s1,54.92.22,77.33c-.83,23.3-9,99.6-9,99.6H151.07s-.45-74.94-1-97.82c-.6-24.95-3.61-79.11-3.61-79.11Z"/><polygon class="cls-21" points="241.36 128.19 216.01 128.19 214.59 153.98 239.91 154.65 241.36 128.19"/><path class="cls-13" d="M228,144.78l-25.39-3.13a219,219,0,0,0,4.57-25.93l25.54,3.14A219.06,219.06,0,0,1,228,144.78Z"/><path class="cls-13" d="M165.91,338.89c.06,0-.7,5.17-.7,5.17H150.07l-.41-4.61Z"/><path class="cls-16" d="M175.46,110.12c1.13,1.76,2.42,3.74,3.71,5.56s2.62,3.68,4,5.45a75.29,75.29,0,0,0,8.76,9.77,30.73,30.73,0,0,0,2.36,2l.6.45a1.56,1.56,0,0,0-.35-.12c-.26-.05-.39,0-.32,0a3.38,3.38,0,0,0,1.65-.38,19.88,19.88,0,0,0,2.53-1.31A87.93,87.93,0,0,0,209,123.37l4.29,3.47a50.67,50.67,0,0,1-9.62,11.73,23.44,23.44,0,0,1-3.43,2.53,13.47,13.47,0,0,1-5.05,1.88,8.92,8.92,0,0,1-3.82-.33,8.28,8.28,0,0,1-1.95-.9l-.86-.55c-1.15-.74-2.24-1.52-3.27-2.33a72.37,72.37,0,0,1-10.77-10.81c-1.57-1.94-3.09-3.9-4.5-5.94s-2.76-4-4.08-6.32Z"/><path class="cls-10" d="M161,114.53c-2.35,9.85,15.47,19.5,15.47,19.5l11.58-13.57a96.06,96.06,0,0,0-11.83-14.27C168.16,98.41,162.82,107,161,114.53Z"/><path class="cls-18" d="M161,114.53c-2.35,9.85,15.47,19.5,15.47,19.5l11.58-13.57a96.06,96.06,0,0,0-11.83-14.27C168.16,98.41,162.82,107,161,114.53Z"/><path class="cls-16" d="M207.78,125.42l2.74-8.77,7.19,3.58s-1.05,6.4-6.29,7.51Z"/><polygon class="cls-16" points="213.4 114.22 219.88 116 217.71 120.23 210.51 116.65 213.4 114.22"/></g></g></g></svg>