<svg xmlns="http://www.w3.org/2000/svg" width="100" height="100" viewBox="0 0 100 100">
  <g id="site-icon" transform="translate(-1030 -350.001)">
    <path id="Intersection_1" data-name="Intersection 1" d="M42.856,100C19.188,100,0,77.614,0,50A57.758,57.758,0,0,1,3.8,29.388C10.2,12.325,25.293,0,42.856,0Z" transform="translate(1130 450.001) rotate(180)" fill="#f0c907"/>
    <path id="Subtraction_1" data-name="Subtraction 1" d="M56.58,100H0V0H57.114A38.665,38.665,0,0,0,33.428,8.3,47.54,47.54,0,0,0,18.085,29.388,57.6,57.6,0,0,0,14.286,50a56.92,56.92,0,0,0,3.368,19.462,51,51,0,0,0,9.185,15.893A43.012,43.012,0,0,0,40.461,96.071,37.427,37.427,0,0,0,56.58,100Z" transform="translate(1030 350.001)" fill="#f0c907"/>
  </g>
</svg>
