<svg xmlns="http://www.w3.org/2000/svg" width="227.168" height="30.23" viewBox="0 0 227.168 30.23">
  <g id="logo" transform="translate(-160.731 -37.77)">
    <path id="Path_24" data-name="Path 24" d="M7.8-16.848a9.8,9.8,0,0,1,4.656,1.056,7.544,7.544,0,0,1,3.084,2.964,8.709,8.709,0,0,1,1.092,4.4A8.726,8.726,0,0,1,15.54-4.032a7.5,7.5,0,0,1-3.1,2.976A9.818,9.818,0,0,1,7.8,0H1.488V-16.848Zm-.264,13.3A4.953,4.953,0,0,0,11.16-4.824a4.816,4.816,0,0,0,1.3-3.6,4.9,4.9,0,0,0-1.3-3.624,4.9,4.9,0,0,0-3.624-1.3H5.592v9.792ZM21-14.784a2.487,2.487,0,0,1-1.764-.636,2.061,2.061,0,0,1-.684-1.572,2.088,2.088,0,0,1,.684-1.6A2.487,2.487,0,0,1,21-19.224a2.455,2.455,0,0,1,1.74.636,2.088,2.088,0,0,1,.684,1.6,2.061,2.061,0,0,1-.684,1.572A2.455,2.455,0,0,1,21-14.784Zm2.04,1.392V0h-4.1V-13.392ZM25.2-6.7a7.494,7.494,0,0,1,.852-3.648,5.918,5.918,0,0,1,2.376-2.4,7.114,7.114,0,0,1,3.492-.84,6.64,6.64,0,0,1,4.212,1.32,6.228,6.228,0,0,1,2.22,3.72H33.984a2.1,2.1,0,0,0-2.136-1.536,2.153,2.153,0,0,0-1.8.876A4.052,4.052,0,0,0,29.376-6.7a4.052,4.052,0,0,0,.672,2.508,2.153,2.153,0,0,0,1.8.876,2.1,2.1,0,0,0,2.136-1.536h4.368a6.287,6.287,0,0,1-2.232,3.7A6.572,6.572,0,0,1,31.92.192a7.114,7.114,0,0,1-3.492-.84,5.918,5.918,0,0,1-2.376-2.4A7.494,7.494,0,0,1,25.2-6.7ZM48.72,0,44.64-5.616V0h-4.1V-17.76h4.1v9.816L48.7-13.392H53.76l-5.568,6.72L53.808,0Zm12.1.192a7.7,7.7,0,0,1-3.12-.6,5.329,5.329,0,0,1-2.16-1.644,4.324,4.324,0,0,1-.888-2.34H58.7a1.559,1.559,0,0,0,.648,1.128,2.293,2.293,0,0,0,1.416.432,2.021,2.021,0,0,0,1.188-.3.919.919,0,0,0,.42-.78.9.9,0,0,0-.6-.852,12.121,12.121,0,0,0-1.944-.612,18.251,18.251,0,0,1-2.4-.708A4.147,4.147,0,0,1,55.776-7.26a3.2,3.2,0,0,1-.7-2.172,3.688,3.688,0,0,1,.636-2.1,4.282,4.282,0,0,1,1.872-1.5,7.168,7.168,0,0,1,2.94-.552A5.894,5.894,0,0,1,64.5-12.336a4.856,4.856,0,0,1,1.668,3.312H62.376a1.634,1.634,0,0,0-.612-1.1,2.123,2.123,0,0,0-1.356-.408,1.875,1.875,0,0,0-1.1.276.881.881,0,0,0-.384.756.923.923,0,0,0,.612.864,9.8,9.8,0,0,0,1.908.576,20.874,20.874,0,0,1,2.424.756,4.181,4.181,0,0,1,1.644,1.2,3.4,3.4,0,0,1,.732,2.22,3.524,3.524,0,0,1-.66,2.1,4.365,4.365,0,0,1-1.9,1.452A7.251,7.251,0,0,1,60.816.192Zm14.04,0a7.392,7.392,0,0,1-3.54-.84,6.151,6.151,0,0,1-2.472-2.4,7.171,7.171,0,0,1-.9-3.648,7.114,7.114,0,0,1,.912-3.636,6.188,6.188,0,0,1,2.5-2.412,7.463,7.463,0,0,1,3.552-.84,7.463,7.463,0,0,1,3.552.84,6.188,6.188,0,0,1,2.5,2.412A7.114,7.114,0,0,1,81.864-6.7,7.041,7.041,0,0,1,80.94-3.06,6.248,6.248,0,0,1,78.42-.648,7.534,7.534,0,0,1,74.856.192Zm0-3.552a2.674,2.674,0,0,0,2-.864A3.432,3.432,0,0,0,77.688-6.7a3.5,3.5,0,0,0-.8-2.472,2.6,2.6,0,0,0-1.98-.864,2.6,2.6,0,0,0-1.992.852A3.522,3.522,0,0,0,72.12-6.7a3.565,3.565,0,0,0,.78,2.472A2.524,2.524,0,0,0,74.856-3.36ZM92.208-13.536a4.86,4.86,0,0,1,3.756,1.524,5.944,5.944,0,0,1,1.4,4.188V0h-4.08V-7.272a2.939,2.939,0,0,0-.7-2.088A2.44,2.44,0,0,0,90.72-10.1a2.44,2.44,0,0,0-1.872.744,2.939,2.939,0,0,0-.7,2.088V0h-4.1V-13.392h4.1v1.776a4.33,4.33,0,0,1,1.68-1.4A5.341,5.341,0,0,1,92.208-13.536Zm17.208-.024v3.408h5.5v3.168h-5.5v3.7h6.216V0h-10.32V-16.848h10.32v3.288ZM123.744.192a7.7,7.7,0,0,1-3.12-.6,5.329,5.329,0,0,1-2.16-1.644,4.324,4.324,0,0,1-.888-2.34h4.056a1.559,1.559,0,0,0,.648,1.128,2.293,2.293,0,0,0,1.416.432,2.021,2.021,0,0,0,1.188-.3.919.919,0,0,0,.42-.78.9.9,0,0,0-.6-.852,12.121,12.121,0,0,0-1.944-.612,18.251,18.251,0,0,1-2.4-.708A4.147,4.147,0,0,1,118.7-7.26a3.2,3.2,0,0,1-.7-2.172,3.688,3.688,0,0,1,.636-2.1,4.282,4.282,0,0,1,1.872-1.5,7.168,7.168,0,0,1,2.94-.552,5.894,5.894,0,0,1,3.972,1.248A4.856,4.856,0,0,1,129.1-9.024H125.3a1.634,1.634,0,0,0-.612-1.1,2.123,2.123,0,0,0-1.356-.408,1.875,1.875,0,0,0-1.1.276.881.881,0,0,0-.384.756.923.923,0,0,0,.612.864,9.8,9.8,0,0,0,1.908.576,20.873,20.873,0,0,1,2.424.756,4.181,4.181,0,0,1,1.644,1.2,3.4,3.4,0,0,1,.732,2.22,3.523,3.523,0,0,1-.66,2.1,4.365,4.365,0,0,1-1.9,1.452A7.251,7.251,0,0,1,123.744.192Zm10.008-14.976a2.487,2.487,0,0,1-1.764-.636,2.061,2.061,0,0,1-.684-1.572,2.088,2.088,0,0,1,.684-1.6,2.487,2.487,0,0,1,1.764-.636,2.455,2.455,0,0,1,1.74.636,2.088,2.088,0,0,1,.684,1.6,2.061,2.061,0,0,1-.684,1.572A2.455,2.455,0,0,1,133.752-14.784Zm2.04,1.392V0h-4.1V-13.392Zm15.6,6.48a10.476,10.476,0,0,1-.072,1.2h-9.288a2.791,2.791,0,0,0,.8,1.908,2.456,2.456,0,0,0,1.74.66,2.157,2.157,0,0,0,2.136-1.3h4.368a5.994,5.994,0,0,1-1.212,2.376,6.068,6.068,0,0,1-2.2,1.656,7.054,7.054,0,0,1-2.952.6,7.183,7.183,0,0,1-3.5-.84,5.975,5.975,0,0,1-2.4-2.4,7.409,7.409,0,0,1-.864-3.648,7.494,7.494,0,0,1,.852-3.648,5.9,5.9,0,0,1,2.388-2.4,7.234,7.234,0,0,1,3.528-.84,7.161,7.161,0,0,1,3.456.816,5.859,5.859,0,0,1,2.364,2.328A7.066,7.066,0,0,1,151.392-6.912Zm-4.2-1.08a2.11,2.11,0,0,0-.72-1.68,2.65,2.65,0,0,0-1.8-.624,2.6,2.6,0,0,0-1.74.6,2.665,2.665,0,0,0-.876,1.7Zm10.464-3.5a4.223,4.223,0,0,1,1.656-1.512,5.172,5.172,0,0,1,2.472-.576,5.545,5.545,0,0,1,3,.84,5.818,5.818,0,0,1,2.124,2.4,8,8,0,0,1,.78,3.624,8.08,8.08,0,0,1-.78,3.636A5.888,5.888,0,0,1,164.784-.66a5.487,5.487,0,0,1-3,.852,5.172,5.172,0,0,1-2.472-.564,4.361,4.361,0,0,1-1.656-1.5V0h-4.1V-17.76h4.1Zm5.856,4.776a3.313,3.313,0,0,0-.852-2.412,2.814,2.814,0,0,0-2.1-.876,2.768,2.768,0,0,0-2.076.888,3.355,3.355,0,0,0-.852,2.424,3.355,3.355,0,0,0,.852,2.424,2.768,2.768,0,0,0,2.076.888,2.789,2.789,0,0,0,2.088-.9A3.37,3.37,0,0,0,163.512-6.72Zm5.52,0a8,8,0,0,1,.78-3.624,5.818,5.818,0,0,1,2.124-2.4,5.545,5.545,0,0,1,3-.84,5.154,5.154,0,0,1,2.484.576,4.243,4.243,0,0,1,1.644,1.512v-1.9h4.1V0h-4.1V-1.9A4.432,4.432,0,0,1,177.4-.384a5.154,5.154,0,0,1-2.484.576,5.445,5.445,0,0,1-2.976-.852,5.887,5.887,0,0,1-2.124-2.424A8.08,8.08,0,0,1,169.032-6.72Zm10.032.024a3.355,3.355,0,0,0-.852-2.424,2.768,2.768,0,0,0-2.076-.888,2.786,2.786,0,0,0-2.076.876,3.313,3.313,0,0,0-.852,2.412,3.4,3.4,0,0,0,.852,2.436,2.751,2.751,0,0,0,2.076.9,2.768,2.768,0,0,0,2.076-.888A3.355,3.355,0,0,0,179.064-6.7Z" transform="translate(204.731 61)" fill="#f0c907"/>
    <g id="dicksonyellow-icon" transform="translate(-869.269 -312.231)">
      <path id="Intersection_1" data-name="Intersection 1" d="M15.115,30.23A15.115,15.115,0,0,1,0,15.115,15.274,15.274,0,0,1,1.34,8.884,15.051,15.051,0,0,1,15.115,0Z" transform="translate(1065.269 380.231) rotate(180)" fill="#f0c907"/>
      <path id="Subtraction_1" data-name="Subtraction 1" d="M19.955,30.23H0V0H20.143a15.135,15.135,0,0,0-8.354,2.508A14.721,14.721,0,0,0,6.378,8.884a15.232,15.232,0,0,0-1.34,6.231A15.1,15.1,0,0,0,19.955,30.229Z" transform="translate(1030 350.001)" fill="#f0c907"/>
    </g>
  </g>
</svg>
